<svg width="29" height="29" viewBox="0 0 29 29" fill="none" xmlns="http://www.w3.org/2000/svg">
<path d="M14.0577 0.770706C13.9669 0.839501 13.8863 0.926848 13.8219 1.03572L4.22909 17.01L0.306706 19.9791C0.0962366 20.1384 0.058004 20.4457 0.224561 20.6658L5.63765 27.8169C5.80421 28.037 6.11038 28.0836 6.32085 27.9243L8.7532 26.0831C8.87471 26.4275 9.04956 26.7579 9.27586 27.0569C10.4689 28.633 12.726 28.941 14.3093 27.7425C15.6343 26.7395 16.0705 24.9948 15.4809 23.53L28.226 20.0599C28.3465 20.0251 28.4542 19.9737 28.5451 19.9049C28.9493 19.5989 29.0534 18.9859 28.7094 18.5315L15.4265 0.983612C15.0802 0.531 14.4643 0.462938 14.0577 0.770706ZM13.0113 26.0276C12.3775 26.5074 11.4758 26.3848 10.9979 25.7534C10.7951 25.4855 10.6947 25.159 10.7106 24.8272L13.3585 24.1057C13.756 24.7303 13.614 25.5714 13.0113 26.0276ZM25.9314 18.4448L9.67486 22.8724L9.27219 22.9816L6.35671 25.1884L2.94954 20.6873L5.86502 18.4804L6.07941 18.1225L14.754 3.67848L25.9314 18.4448Z" fill="#FAD02C"/>
</svg>
