<svg width="20" height="20" viewBox="0 0 20 20" fill="none" xmlns="http://www.w3.org/2000/svg">
<path d="M10.0001 18.3337C14.5176 18.3337 18.3334 14.5178 18.3334 10.0003C18.3334 5.48283 14.5176 1.66699 10.0001 1.66699C5.48258 1.66699 1.66675 5.48283 1.66675 10.0003C1.66675 14.5178 5.48258 18.3337 10.0001 18.3337ZM10.0001 3.33366C13.6142 3.33366 16.6667 6.38616 16.6667 10.0003C16.6667 13.6145 13.6142 16.667 10.0001 16.667C6.38591 16.667 3.33341 13.6145 3.33341 10.0003C3.33341 6.38616 6.38591 3.33366 10.0001 3.33366Z" fill="#6C6E6E"/>
<path d="M9.99992 14.1663C10.7508 14.1663 12.1508 14.0263 13.0891 13.0897L11.9108 11.9097C11.5416 12.2788 10.8266 12.4997 9.99992 12.4997C8.64492 12.4997 7.49992 11.3547 7.49992 9.99967C7.49992 8.64467 8.64492 7.49967 9.99992 7.49967C10.8274 7.49967 11.5424 7.72051 11.9108 8.08884L13.0891 6.91051C12.1516 5.97301 10.7508 5.83301 9.99992 5.83301C7.70242 5.83301 5.83325 7.70217 5.83325 9.99967C5.83325 12.2972 7.70242 14.1663 9.99992 14.1663Z" fill="#6C6E6E"/>
</svg>
