<svg width="101" height="30" viewBox="0 0 101 30" fill="none" xmlns="http://www.w3.org/2000/svg">
<g clip-path="url(#clip0_1554_1881)">
<path d="M98.6239 6.97713C96.9175 4.90732 93.905 3.71984 90.3624 3.71984C86.6139 3.71984 83.2396 4.99497 80.9026 7.06371L81.2836 4.67486L80.2709 4.37397C78.8355 3.94643 77.2439 3.71984 75.6647 3.71984C72.951 3.71984 70.3553 4.55889 68.2593 5.94143L68.8627 3.95339H52.635L52.4426 4.58827C51.0013 4.00896 49.4146 3.71984 47.6275 3.71984C44.2874 3.71984 40.671 5.01689 38.7941 7.51316C38.6712 7.33039 38.5424 7.15028 38.3986 6.97713C36.6917 4.90732 33.6803 3.71984 30.1371 3.71984C26.4993 3.71984 23.2104 4.91909 20.8841 6.88147L21.7894 1.37429L20.7596 1.07661C19.0019 0.568379 17.0491 0.299561 15.1108 0.299561C7.99927 0.299561 1.52746 4.81968 0.376855 10.5893C-0.113742 13.0439 0.458617 15.4215 1.98652 17.285C3.28944 18.8728 5.21282 20.0047 7.49746 20.5829H0.451673V29.5938H36.339L36.3946 29.4842L36.4015 29.5938H40.7212L41.307 28.6393L41.1263 29.5938H50.8923L51.036 28.8413C51.8938 29.3971 53.0081 29.6985 54.2917 29.6985C55.4386 29.6985 56.5026 29.4612 57.4197 29.0385L57.3149 29.5938H71.0084L71.0313 29.4714C71.6662 29.6146 72.3332 29.699 72.9707 29.699C73.3571 29.699 73.7558 29.6648 74.1523 29.5948H79.3736L79.7611 28.7724H80.109L80.2148 29.5948H96.3174L97.1179 25.3777H96.8235L96.9341 24.7984H97.1446L97.9463 20.5824H97.5006C97.8645 20.2537 98.1285 19.8315 98.2204 19.3505C98.2742 19.0715 98.2657 18.784 98.1954 18.5087C98.125 18.2334 97.9947 17.977 97.8138 17.758C97.718 17.6446 97.6099 17.5423 97.4915 17.4528C98.7693 16.1408 99.6543 14.5531 99.9985 12.7681C100.418 10.5796 99.9439 8.57664 98.6239 6.97713ZM89.3079 25.0635H88.8136L89.5596 21.143C89.7296 21.1211 89.899 21.0965 90.0668 21.0698L89.3079 25.0635ZM77.7837 12.3101C77.7324 12.572 77.6971 12.8312 77.671 13.0855C76.5845 13.8124 75.5664 14.156 74.4773 14.156C73.7403 14.156 73.1022 13.9155 72.7703 13.5125C72.5812 13.2838 72.5176 13.0278 72.5763 12.7302C72.7703 11.726 74.1326 10.8453 75.4905 10.8453C76.3403 10.8453 77.1387 11.1456 77.9216 11.7607C77.873 11.9424 77.819 12.1236 77.7837 12.3101ZM78.8836 20.5829L78.3534 21.4567L77.913 21.2098C77.6181 21.0491 77.309 20.916 76.9896 20.8122C77.2247 20.7566 77.4444 20.693 77.6357 20.6235L78.254 20.3985L78.8616 17.735C78.9439 17.8494 79.022 17.9664 79.1133 18.0765C80.0299 19.1875 81.3515 20.0373 82.9462 20.5824L78.8836 20.5829ZM84.2614 20.9517L84.0503 22.0606L83.7569 20.8287C83.9231 20.872 84.0899 20.9143 84.2614 20.9517ZM89.4282 10.9618C90.0898 10.9618 90.5991 11.1376 90.8636 11.4566C91.1057 11.7506 91.0977 12.1252 91.0453 12.3887C90.8342 13.4751 89.72 14.234 88.3294 14.234C87.6528 14.234 87.1184 14.0555 86.863 13.7445C86.6855 13.5291 86.6321 13.2266 86.7058 12.8456C86.8854 11.9098 87.8789 10.9618 89.4282 10.9618ZM58.8685 21.3925C58.6731 21.2622 58.4682 21.1468 58.2555 21.0473H58.9348L58.8685 21.3925ZM55.1324 25.0624C55.0447 25.1404 54.902 25.1928 54.7369 25.2024C54.8213 25.1297 54.9539 25.0699 55.1324 25.0624ZM54.0705 11.0633L53.2646 13.7162C53.2188 13.0273 52.9912 12.3629 52.6051 11.7906C52.4412 11.5551 52.2537 11.3368 52.0456 11.1392L54.0705 11.0633ZM30.8184 12.3881C30.6084 13.4751 29.492 14.234 28.1025 14.234C27.427 14.234 26.8921 14.0555 26.6361 13.7445C26.4576 13.5291 26.4052 13.2266 26.4795 12.8456C26.6601 11.9088 27.6536 10.9618 29.2029 10.9618C29.8645 10.9618 30.3738 11.1376 30.6383 11.4566C30.8788 11.7506 30.8692 12.1257 30.8184 12.3881ZM40.1318 21.0142L40.1056 21.0698L40.1002 21.0094C40.1109 21.0104 40.1211 21.0126 40.1318 21.0142ZM52.1225 17.4822L51.1814 20.5829H47.5666C49.4146 19.9731 51.0713 18.9508 52.1225 17.4822ZM52.5142 21.0473H52.7157C52.6414 21.0788 52.5688 21.1104 52.4966 21.1446L52.5142 21.0473ZM13.6305 12.914C12.599 12.914 11.7055 12.5752 11.24 12.0087C10.9706 11.6806 10.8803 11.3171 10.9632 10.8982C11.2325 9.54875 13.0319 8.40884 14.8927 8.40884C16.1492 8.40884 17.3115 8.88019 18.4482 9.84268C18.1476 10.4027 17.9086 10.9937 17.7353 11.6052C16.3474 12.4923 15.036 12.914 13.6305 12.914ZM34.8902 19.303L36.0638 19.8315C36.7125 20.1233 37.4335 20.3729 38.1886 20.5835H36.0039L35.7698 21.0521L35.7394 20.5835H31.9632C32.9857 20.273 33.9681 19.8432 34.8902 19.303ZM63.5056 25.0635L64.3575 20.5829H60.2238L63.1203 11.0355L64.0032 11.0692C63.8367 11.5038 63.7064 11.9513 63.6136 12.4074C63.2016 14.5376 63.7023 16.5945 65.0261 18.1973C65.8977 19.2538 67.0948 20.0565 68.4955 20.5824H64.8518L64 25.0629L63.5056 25.0635ZM17.4569 20.2478L18.079 20.0287L18.623 17.7168C18.7106 17.8387 18.7919 17.9611 18.8881 18.077C19.8046 19.1881 21.1257 20.0378 22.7199 20.5829H16.1262C16.6248 20.4894 17.0828 20.3788 17.4569 20.2478ZM92.19 20.5829C92.7162 20.421 93.2327 20.2293 93.7372 20.0089C93.8104 20.1832 93.8981 20.3515 94.0199 20.4995C94.0466 20.5305 94.0803 20.5546 94.1076 20.5829H92.19Z" fill="white"/>
<path d="M34.607 21.7896L34.8565 25.7277H34.9191C35.0484 25.3253 35.1916 24.9052 35.392 24.5113L36.75 21.7896H38.9555L39.2885 25.7277H39.3521C39.467 25.3418 39.5963 24.9389 39.7727 24.5632L41.0975 21.7896H44.0908L40.0431 28.388H37.5335L37.3122 24.7999H37.2176C37.1214 25.142 37.037 25.4738 36.8804 25.7977L35.5903 28.388H33.1427L31.6238 21.7896H34.607Z" fill="#005DAA"/>
<path d="M43.8813 21.7896H46.6538L46.2322 24.0122H47.9963L48.4185 21.7896H51.1911L49.9373 28.388H47.1648L47.5998 26.0954H45.8346L45.3996 28.388H42.627L43.8813 21.7896Z" fill="#005DAA"/>
<path d="M59.3116 25.1062C58.9092 27.2241 56.7031 28.4928 54.2891 28.4928C51.873 28.4928 50.1495 27.2236 50.5524 25.1062C50.9468 23.0321 53.1775 21.6843 55.5824 21.6843C57.9873 21.6843 59.7049 23.0321 59.3116 25.1062ZM53.4447 25.1409C53.301 25.8934 53.8124 26.4102 54.684 26.4102C55.5562 26.4102 56.2632 25.8934 56.407 25.1409C56.5395 24.4403 56.0842 23.8551 55.1709 23.8551C54.2554 23.8551 53.5773 24.4409 53.4447 25.1409ZM59.9422 21.7896H62.82L61.9682 26.2702H64.3843L63.9813 28.3875H58.6879L59.9422 21.7896ZM71.1922 26.0249L71.3205 26.1221C71.7716 26.454 72.3396 26.726 73.0018 26.726C73.2856 26.726 73.7553 26.6288 73.812 26.3322C73.8686 26.0356 73.4956 26.0088 73.2423 25.9645L72.6806 25.8768C71.5877 25.7101 70.7487 25.1586 70.9437 24.1271C71.2425 22.5608 73.1199 21.6854 74.8423 21.6854C75.7455 21.6854 76.5418 21.8703 77.2429 22.2631L76.1447 23.9524C75.7043 23.6729 75.1892 23.4533 74.5692 23.4533C74.3175 23.4533 73.9343 23.5313 73.8841 23.8022C73.8371 24.047 74.1871 24.0823 74.3998 24.1261L75.0283 24.2485C76.2024 24.4772 76.9821 25.0186 76.7705 26.1387C76.4702 27.7142 74.5997 28.4928 72.8874 28.4928C71.8907 28.4928 70.7781 28.2652 69.9572 27.8889L71.1922 26.0249Z" fill="#005DAA"/>
<path d="M81.079 25.9986L80.9641 24.8347C80.9331 24.5546 80.9352 24.2661 80.9368 23.9855H80.8315L79.9246 25.9986H81.079ZM78.5736 28.388H75.528L79.534 21.7896H82.7159L84.2871 28.388H81.2414L81.1356 27.5656H78.9621L78.5736 28.388Z" fill="#005DAA"/>
<path d="M85.3009 21.7896H88.1787L87.3269 26.2701H89.743L89.34 28.3875H84.0471L85.3009 21.7896ZM91.1282 21.7896H96.4542L96.1111 23.5927H93.6843L93.5641 24.2228H95.7798L95.4543 25.9382H93.2386L93.1162 26.5854H95.6269L95.2833 28.388H89.8744L91.1282 21.7896Z" fill="#005DAA"/>
<path d="M52.0835 9.93102L55.717 9.79474L52.6682 19.8418H59.1876L62.2353 9.79474L65.7871 9.93102L67.2338 5.16079H53.5297L52.0835 9.93102ZM38.5846 12.5395C37.6729 17.2499 32.6782 20.0743 27.2058 20.0743C21.7344 20.0743 17.831 17.251 18.7427 12.5395C19.6352 7.92428 24.6881 4.92725 30.1365 4.92725C35.5844 4.92725 39.4776 7.92535 38.5846 12.5395ZM25.2936 12.6175C24.9703 14.2919 26.1284 15.4409 28.1025 15.4409C30.0767 15.4409 31.6789 14.2924 32.0033 12.6175C32.3041 11.0602 31.2716 9.75626 29.2018 9.75626C27.1315 9.75519 25.595 11.0602 25.2936 12.6175Z" fill="#E31837"/>
<path d="M36.5586 18.7307C38.4189 19.5665 40.9382 20.0742 43.1988 20.0742C47.0765 20.0742 51.3134 18.3416 51.9916 14.8369C52.4731 12.3449 50.709 11.1377 48.0465 10.6316L46.6244 10.359C46.1434 10.2607 45.3493 10.1837 45.4546 9.63753C45.5716 9.03417 46.4384 8.85836 47.0097 8.85836C48.4126 8.85836 49.5803 9.34522 50.5775 9.96835L53.0647 6.21084C51.4727 5.33493 49.6727 4.92716 47.6264 4.92716C43.7246 4.92716 39.4696 6.87405 38.7962 10.359C38.3516 12.6565 40.2552 13.883 42.729 14.2528L44.0004 14.4468C44.5765 14.5457 45.422 14.6028 45.2937 15.2644C45.1654 15.9261 44.1014 16.1403 43.458 16.1403C41.9584 16.1403 40.672 15.537 39.6497 14.7973L39.3584 14.5831L36.5586 18.7307ZM79.9241 5.53052C78.6201 5.14093 77.1381 4.92716 75.6621 4.92716C70.4045 4.92716 65.6262 8.35386 64.7973 12.6372C63.9866 16.8233 67.3556 20.0747 72.4705 20.0747C73.6361 20.0747 76.096 19.8995 77.2237 19.4906L78.4763 14.0005C77.2664 14.8374 75.9763 15.3633 74.4773 15.3633C72.5272 15.3633 71.0784 14.117 71.3915 12.502C71.7004 10.9052 73.5404 9.64021 75.4905 9.64021C76.9655 9.64021 78.1418 10.3216 79.0353 11.1211L79.9241 5.53052ZM90.3623 4.92716C84.915 4.92716 79.8621 7.92419 78.9685 12.5389C78.0573 17.2498 81.9607 20.0742 87.4332 20.0742C92.904 20.0742 97.9003 17.2509 98.811 12.5389C99.7024 7.92526 95.8097 4.92716 90.3623 4.92716ZM89.4282 9.75511C91.498 9.75511 92.5316 11.0586 92.2285 12.6164C91.9052 14.2907 90.3025 15.4397 88.3278 15.4397C86.3531 15.4397 85.1956 14.2913 85.5194 12.6164C85.8208 11.0602 87.3584 9.75511 89.4282 9.75511ZM20.4229 2.23584C18.7956 1.76502 16.9492 1.50635 15.1092 1.50635C8.55132 1.50635 2.59094 5.64811 1.55791 10.8256C0.548393 15.8854 4.74893 19.8145 11.1283 19.8145C12.5824 19.8145 15.6521 19.6028 17.0561 19.1096L18.6176 12.4721C17.1106 13.4848 15.4998 14.1202 13.6304 14.1202C11.1972 14.1202 9.3909 12.6137 9.78102 10.6594C10.1663 8.7301 12.4601 7.19952 14.8922 7.19952C16.7311 7.19952 18.1992 8.02359 19.3124 8.98822L20.4229 2.23584Z" fill="#E31837"/>
<path d="M94.7991 19.1278C94.8969 18.6147 95.4681 18.2021 96.0902 18.2021C96.7069 18.2021 97.1259 18.6153 97.0286 19.1278C96.9292 19.6435 96.3553 20.0561 95.7375 20.0561C95.116 20.0561 94.7023 19.6419 94.7991 19.1278ZM96.7374 19.1278C96.8154 18.7152 96.5199 18.4442 96.0432 18.4442C95.559 18.4442 95.1673 18.7152 95.0903 19.1278C95.0123 19.5403 95.2993 19.814 95.784 19.814C96.2607 19.814 96.6594 19.5409 96.7374 19.1278ZM96.3408 19.6119H96.0528L95.8711 19.201H95.683L95.605 19.6119H95.3602L95.5446 18.642H96.1094C96.359 18.642 96.4937 18.7109 96.4509 18.9391C96.4183 19.1053 96.2879 19.1908 96.1378 19.2026L96.3408 19.6119ZM95.9838 19.0155C96.1062 19.0155 96.2115 19.0155 96.2318 18.9124C96.2479 18.8269 96.142 18.8269 96.0197 18.8269H95.7546L95.7199 19.0155H95.9838Z" fill="#E31837"/>
<path d="M2.01379 28.3987H32.5254L32.5232 28.388H32.4976L32.1128 26.7099H2.01379V28.3987ZM2.01379 26.0002H31.9487L31.5591 24.312H2.01379V26.0002ZM2.01379 23.5916H31.3839L31.2524 22.9765L30.982 21.8024H2.01379V23.5916ZM65.7705 21.7896H71.0955L70.7524 23.5927H68.3267L68.2064 24.2228H70.4221L70.0972 25.9382H67.8815L67.7586 26.5854H70.2687L69.9262 28.388H64.5162L65.7705 21.7896Z" fill="#005DAA"/>
</g>
<defs>
<clipPath id="clip0_1554_1881">
<rect width="100" height="29.4" fill="white" transform="translate(0.175659 0.300049)"/>
</clipPath>
</defs>
</svg>
