<svg width="73" height="36" viewBox="0 0 73 36" fill="none" xmlns="http://www.w3.org/2000/svg">
<path d="M4.8806 24.7264H6.52523V25.7432H6.5626C7.08589 25.0277 7.83344 24.5193 8.91737 24.5193C10.9171 24.5193 12.244 26.1386 12.244 28.6241C12.244 31.1283 10.9358 32.71 8.91737 32.71C7.85212 32.71 7.14195 32.3146 6.61865 31.5991H6.58128V35.3461H4.89928V24.7264H4.8806ZM10.5559 28.6647C10.5559 27.1081 9.95535 25.9454 8.60406 25.9454C7.15888 25.9454 6.53955 27.1644 6.53955 28.6647C6.53955 30.1838 7.19643 31.2715 8.66038 31.2715C9.86151 31.2715 10.5559 30.2588 10.5559 28.6647ZM15.0787 25.7949H15.1165C15.683 25.0056 16.3629 24.5734 17.4582 24.5734C19.0824 24.5734 20.1022 25.6634 20.1022 27.3172V32.523H18.4025V27.5239C18.4025 26.6219 17.836 26.058 16.8917 26.058C15.853 26.058 15.0787 26.8474 15.0787 27.975V32.523H13.3791V21.7544H15.0787V25.7949ZM26.1559 31.4977C25.7255 32.102 25.052 32.6685 23.761 32.6685C22.2642 32.6685 21.179 31.8943 21.179 30.3835C21.179 28.6084 22.5635 28.1364 24.341 27.8719C25.501 27.6831 26.1559 27.5887 26.1559 26.89C26.1559 26.2291 25.632 25.8136 24.6965 25.8136C23.6674 25.8136 23.1623 26.2291 23.1249 27.1355H21.5158C21.5532 25.7192 22.5261 24.5484 24.6778 24.5484C26.7546 24.5484 27.821 25.4171 27.821 27.2299V30.629C27.821 31.1955 27.9333 31.4221 28.4759 31.3277H28.5133V32.423C28.3449 32.5174 28.1204 32.593 27.7275 32.593C26.792 32.6118 26.3056 32.2908 26.1559 31.4977ZM26.2141 29.6852V28.4484C25.8349 28.6767 25.2471 28.8289 24.6784 28.9431C23.5598 29.1905 22.8962 29.3998 22.8962 30.3131C22.8962 31.1693 23.465 31.4167 24.2044 31.4167C25.5505 31.4357 26.2141 30.5034 26.2141 29.6852ZM31.1459 26.0042H31.1837C31.6558 25.1742 32.279 24.6648 33.2611 24.6648C33.4877 24.6648 33.6199 24.6837 33.7521 24.7214V26.2683H33.7143C33.601 26.2306 33.4688 26.2306 33.2989 26.2306C32.128 26.2306 31.2026 27.0229 31.2026 28.5133V32.4939H29.5029V24.7214H31.1648V26.0042H31.1459ZM34.567 24.7369H36.2126V25.8115H36.25C36.68 25.0951 37.4654 24.5484 38.4938 24.5484C39.4475 24.5484 40.2142 25.0762 40.5694 25.9246H40.6068C41.1117 25.0574 41.9719 24.5484 42.9442 24.5484C44.4589 24.5484 45.3938 25.5476 45.3938 27.2066V32.523H43.6922V27.4328C43.6922 26.509 43.1686 26.0189 42.4207 26.0189C41.5044 26.0189 40.8125 26.773 40.8125 27.8664V32.5041H39.1296V27.414C39.1296 26.4902 38.6434 26 37.8955 26C37.0166 26 36.2686 26.7541 36.2686 27.8476V32.4853H34.5857V24.7369H34.567ZM51.5068 31.4977C51.0713 32.102 50.3898 32.6685 49.0834 32.6685C47.5688 32.6685 46.4707 31.8943 46.4707 30.3835C46.4707 28.6084 47.8717 28.1364 49.6703 27.8719C50.8441 27.6831 51.5068 27.5887 51.5068 26.89C51.5068 26.2291 50.9767 25.8136 50.03 25.8136C48.9887 25.8136 48.4776 26.2291 48.4397 27.1355H46.8115C46.8493 25.7192 47.8339 24.5484 50.0111 24.5484C52.1126 24.5484 53.1918 25.4171 53.1918 27.2299V30.629C53.1918 31.1955 53.3054 31.4221 53.8544 31.3277H53.8923V32.423C53.7219 32.5174 53.4947 32.593 53.0971 32.593C52.1694 32.6118 51.6582 32.2908 51.5068 31.4977V31.4977ZM51.5057 29.6852V28.4484C51.1299 28.6767 50.5473 28.8289 49.9835 28.9431C48.8747 29.1905 48.217 29.3997 48.217 30.3131C48.217 31.1693 48.7807 31.4167 49.5137 31.4167C50.848 31.4357 51.5057 30.5034 51.5057 29.6852ZM54.4453 28.6083C54.4453 26.3094 55.9017 24.5193 58.2171 24.5193C60.1403 24.5193 61.354 25.6311 61.6154 27.2893H59.9349C59.7855 26.4602 59.1693 25.8949 58.2544 25.8949C56.854 25.8949 56.1258 27.0066 56.1258 28.5895C56.1258 30.1535 56.8353 31.2842 58.2357 31.2842C59.244 31.2842 59.8789 30.7377 59.9909 29.739H61.6341C61.5034 31.4726 60.2523 32.6974 58.2544 32.6974C55.9391 32.7163 54.4453 30.9073 54.4453 28.6083V28.6083ZM62.608 35.3345V33.9422H62.6455C62.8328 33.9987 63.0576 34.0363 63.32 34.0363C63.957 34.0363 64.2568 33.8105 64.4816 33.1708L64.8001 32.2865L61.896 24.723H63.6947L65.1187 28.7682C65.3622 29.4455 65.6245 30.3862 65.6245 30.3862H65.662C65.662 30.3862 65.9056 29.4455 66.1492 28.7682L67.5169 24.723H69.2594L66.1492 33.2649C65.5683 34.9206 64.9875 35.4286 63.6572 35.4286C63.2637 35.4474 62.9452 35.4098 62.608 35.3345H62.608ZM61.0578 12.7401C61.3324 14.0124 62.0563 14.4614 63.554 14.4614C64.877 14.4614 65.6009 13.9874 65.6009 13.239C65.6009 12.1664 64.6273 12.0915 62.6055 11.5676C60.234 10.944 58.7114 10.4201 58.0125 9.92121C56.6895 8.99819 56.0654 7.67604 56.0654 6.00464C56.0654 2.7118 58.6615 0.566406 63.1796 0.566406C67.5729 0.566406 70.1439 2.48726 70.4434 5.92984H65.2764C65.1016 4.90703 64.4027 4.43306 63.0797 4.43306C61.9315 4.43306 61.3573 4.80726 61.3573 5.58059C61.3573 6.47863 62.231 6.65326 63.8785 7.07734C66.0003 7.62616 67.6727 7.95047 68.746 8.69886C70.2438 9.6967 70.9177 10.919 70.9177 12.6653C70.9177 16.3573 68.2718 18.5276 63.3294 18.5276C58.7613 18.5276 56.0904 16.3823 55.7409 12.7401H61.0578ZM40.9885 11.4429C40.6889 15.9083 37.7434 18.5276 32.8509 18.5276C27.4092 18.5276 24.1143 15.085 24.1143 9.54701C24.1143 3.98401 27.4592 0.566406 32.7511 0.566406C37.6935 0.566406 40.5891 3.06103 40.9136 7.47647H35.7215C35.5718 5.75521 34.5982 4.8322 32.8259 4.8322C30.6792 4.8322 29.6309 6.4038 29.6309 9.54701C29.6309 12.6403 30.7791 14.2369 33.0007 14.2369C34.6482 14.2369 35.6966 13.239 35.8713 11.418H40.9885V11.4429ZM39.8153 1.06534H45.3818L48.2524 12.0416L51.3227 1.06534H56.6895L50.9732 18.0786H45.5316L39.8153 1.06534ZM6.61603 0.591349C5.967 0.591349 5.31798 0.840802 4.84372 1.33974L1.27419 4.90706C0.300652 5.87993 0.300652 7.47647 1.27419 8.47434L11.3588 18.5276L21.4184 8.44937C22.3919 7.47647 22.3919 5.87993 21.4184 4.88208L17.8489 1.33974C17.3496 0.840802 16.7006 0.591349 16.0766 0.591349C15.4275 0.591349 14.7785 0.840802 14.2793 1.33974L11.3588 4.28338L8.41328 1.33974C7.91403 0.840802 7.26503 0.591349 6.61603 0.591349ZM70.9329 24.7812C70.2581 24.7812 69.7833 24.292 69.7833 23.6316C69.7833 22.9467 70.3206 22.482 70.9329 22.482C71.5452 22.482 72.0825 22.9345 72.0825 23.6316C72.0825 24.3287 71.5452 24.7812 70.9329 24.7812ZM70.9474 22.6857C70.4337 22.6857 70.0452 23.0788 70.0452 23.6316C70.0452 24.1598 70.3961 24.5775 70.9474 24.5775C71.4487 24.5775 71.8497 24.1844 71.8497 23.6316C71.8497 23.0788 71.4487 22.6857 70.9474 22.6857ZM70.7238 24.2744H70.5109V23.0349H70.9994C71.3126 23.0349 71.4754 23.1432 71.4754 23.396C71.4754 23.6246 71.3376 23.7209 71.1372 23.7329L71.5004 24.2864H71.2624L70.9242 23.757H70.7238V24.2744ZM70.9527 23.617C71.1075 23.617 71.2385 23.6044 71.2385 23.4153C71.2385 23.2513 71.0956 23.2387 70.9646 23.2387H70.7146V23.617H70.9527Z" fill="#D90000"/>
</svg>
