<svg width="20" height="18" viewBox="0 0 20 18" fill="none" xmlns="http://www.w3.org/2000/svg">
<path d="M2.49967 4.00033L9.16634 8.16699L15.833 4.00033V6.50033H17.4997V2.33366C17.4997 1.41699 16.7497 0.666992 15.833 0.666992H2.49967C1.58301 0.666992 0.841341 1.41699 0.841341 2.33366L0.833008 12.3337C0.833008 13.2503 1.58301 14.0003 2.49967 14.0003H10.833V12.3337H2.49967V4.00033ZM15.833 2.33366L9.16634 6.50033L2.49967 2.33366H15.833Z" fill="#333652"/>
<path d="M17.5 10.667V14.0003C17.5 14.917 16.75 15.667 15.8333 15.667C14.9167 15.667 14.1667 14.917 14.1667 14.0003V10.2503C14.1667 10.017 14.35 9.83366 14.5833 9.83366C14.8167 9.83366 15 10.017 15 10.2503V14.0003H16.6667V10.2503C16.6667 9.10033 15.7333 8.16699 14.5833 8.16699C13.4333 8.16699 12.5 9.10033 12.5 10.2503V14.0003C12.5 15.842 13.9917 17.3337 15.8333 17.3337C17.675 17.3337 19.1667 15.842 19.1667 14.0003V10.667H17.5Z" fill="#333652"/>
</svg>
