<svg width="33" height="32" viewBox="0 0 33 32" fill="none" xmlns="http://www.w3.org/2000/svg">
<path d="M29.6429 1.71428H3.35721C2.72507 1.71428 2.21436 2.225 2.21436 2.85714V29.1429C2.21436 29.775 2.72507 30.2857 3.35721 30.2857H29.6429C30.2751 30.2857 30.7858 29.775 30.7858 29.1429V2.85714C30.7858 2.225 30.2751 1.71428 29.6429 1.71428ZM26.3429 10.0536H24.0608C22.2715 10.0536 21.9251 10.9036 21.9251 12.1536V14.9071H26.1965L25.6394 19.2179H21.9251V30.2857H17.4715V19.2214H13.7465V14.9071H17.4715V11.7286C17.4715 8.03928 19.7251 6.02857 23.0179 6.02857C24.5965 6.02857 25.9501 6.14643 26.3465 6.2V10.0536H26.3429Z" fill="#00477B"/>
</svg>
