<svg width="25" height="24" viewBox="0 0 25 24" fill="none" xmlns="http://www.w3.org/2000/svg">
<path d="M5.86424 12C5.86424 10.8109 6.19309 9.69704 6.76439 8.74327V4.69759H2.70344C1.09168 6.78296 0.218018 9.32448 0.218018 12C0.218018 14.6755 1.09168 17.2171 2.70344 19.3024H6.76439V15.2567C6.19309 14.303 5.86424 13.1891 5.86424 12Z" fill="#FBBD00"/>
<path d="M12.2633 18.375L9.44019 21.1875L12.2633 24C14.949 24 17.5 23.1296 19.5933 21.5239V17.4825H15.5367C14.5709 18.0538 13.4481 18.375 12.2633 18.375Z" fill="#0F9D58"/>
<path d="M6.76432 15.2567L2.70337 19.3024C3.02248 19.7153 3.36995 20.1107 3.74594 20.4853C6.021 22.7518 9.04582 24 12.2632 24V18.375C9.92833 18.375 7.8819 17.1225 6.76432 15.2567Z" fill="#31AA52"/>
<path d="M24.3085 12C24.3085 11.2699 24.2421 10.5385 24.1112 9.82607L24.0053 9.24956H12.2632V14.8746H17.9777C17.4228 15.9743 16.5696 16.8715 15.5365 17.4826L19.5931 21.524C20.0075 21.2061 20.4044 20.8599 20.7805 20.4853C23.0555 18.2188 24.3085 15.2053 24.3085 12Z" fill="#3C79E6"/>
<path d="M16.7881 7.49217L17.2872 7.98933L21.2797 4.01189L20.7806 3.51473C18.5056 1.24823 15.4808 0 12.2633 0L9.44019 2.8125L12.2633 5.625C13.9725 5.625 15.5795 6.28809 16.7881 7.49217Z" fill="#CF2D48"/>
<path d="M12.2633 5.625V0C9.04587 0 6.02105 1.24823 3.74595 3.51469C3.36995 3.88927 3.02248 4.28466 2.70337 4.69758L6.76432 8.74327C7.88195 6.8775 9.92838 5.625 12.2633 5.625Z" fill="#EB4132"/>
</svg>
