<svg width="58" height="32" viewBox="0 0 58 32" fill="none" xmlns="http://www.w3.org/2000/svg">
<g clip-path="url(#clip0_1554_1893)">
<path d="M15.7295 13.3574V11.8559H13.0022V21.0629H15.7964V15.9606C16.2752 14.8945 17.083 14.3613 18.2199 14.361C18.5516 14.3594 18.8826 14.3923 19.2075 14.459V11.8151C18.9678 11.7281 18.6766 11.6846 18.334 11.6846C17.3864 11.6846 16.5183 12.2422 15.7295 13.3574Z" fill="#134B97"/>
<path d="M28.1447 19.8478C29.0453 18.9316 29.4955 17.7987 29.4955 16.449C29.4955 15.1105 29.0453 13.9816 28.1447 13.0621C27.2442 12.1426 26.126 11.6829 24.7903 11.6829C23.4546 11.6829 22.3381 12.1447 21.4406 13.0685C20.5431 13.9922 20.0942 15.1191 20.0939 16.449C20.0939 17.7789 20.5428 18.9069 21.4406 19.8331C22.3384 20.7593 23.455 21.2226 24.7903 21.2229C26.126 21.2241 27.2442 20.7657 28.1447 19.8478ZM23.3136 18.0393C22.93 17.6076 22.7382 17.078 22.7382 16.4508C22.7382 15.8343 22.93 15.3089 23.3136 14.8746C23.6971 14.4404 24.1895 14.2231 24.7908 14.2228C25.3918 14.2228 25.8856 14.4401 26.2722 14.8746C26.6588 15.3092 26.8519 15.8346 26.8516 16.4508C26.8516 17.0728 26.6585 17.601 26.2722 18.0352C25.8859 18.4695 25.3921 18.6866 24.7908 18.6866C24.1895 18.6866 23.6971 18.4708 23.3136 18.0393Z" fill="#134B97"/>
<path d="M45.7833 11.6846C44.4885 11.6846 43.3922 12.1362 42.4944 13.0395C41.5966 13.9428 41.1477 15.0799 41.1477 16.4507C41.1477 17.8554 41.5775 19.0019 42.4371 19.8902C43.2968 20.7786 44.423 21.2233 45.8158 21.2246C46.7514 21.2246 47.5512 21.0499 48.2151 20.7005C48.9057 20.3302 49.5247 19.8397 50.0432 19.2522L48.0195 18.1203C47.4973 18.5967 46.8173 18.8349 45.9793 18.8349C44.7771 18.8349 44.0698 18.3017 43.8576 17.2353H50.1907C50.1921 17.1603 50.1976 17.0853 50.2072 17.0109C50.2179 16.9159 50.226 16.8289 50.2315 16.7498C50.237 16.671 50.2397 16.6046 50.2397 16.5501C50.2397 15.2009 49.8235 14.053 48.9911 13.1064C48.1586 12.1597 47.0893 11.6858 45.7833 11.6846ZM43.8901 15.5781C44.026 15.0672 44.2572 14.6729 44.5836 14.3954C44.9005 14.1212 45.307 13.973 45.726 13.979C46.1395 13.979 46.5136 14.1401 46.8483 14.4622C47.1829 14.7844 47.383 15.1565 47.4483 15.5785L43.8901 15.5781Z" fill="#134B97"/>
<path d="M56.7469 11.6846C55.8002 11.6846 54.9325 12.2423 54.1438 13.3579V11.8559H51.4178V21.0629H54.2088V15.9606C54.6876 14.8945 55.4955 14.3613 56.6324 14.361C56.9641 14.3594 57.2951 14.3923 57.62 14.459V11.8151C57.379 11.7281 57.088 11.6846 56.7469 11.6846Z" fill="#134B97"/>
<path d="M10.3134 10.119C10.3547 9.8023 10.3795 9.48366 10.3876 9.16439H10.3912C10.3912 5.56267 13.3228 2.63247 16.9231 2.63247C20.5235 2.63247 23.4551 5.56404 23.4551 9.16439H26.0875C26.0875 4.11108 21.9765 0 16.9231 0C11.9225 0 7.84717 4.02634 7.76197 9.00727H7.75739C7.75543 9.26665 7.73723 9.52566 7.70288 9.78277C7.58241 10.7181 7.23337 12.0666 6.25496 13.1784C5.48954 14.0487 4.44242 14.6377 3.13054 14.9446V8.82817H0.176514V21.0616H3.13099V17.6339C3.99872 17.4881 4.84287 17.2262 5.6407 16.8552L8.30477 21.0611H11.8387L7.94016 15.2282C8.0391 15.1269 8.13666 15.0239 8.23102 14.9171C9.64872 13.3057 10.1457 11.4194 10.3134 10.119Z" fill="#134B97"/>
<path d="M39.9686 23.7535V11.8559H37.3082V12.6396C36.6825 12.0029 35.891 11.6846 34.9337 11.6846C33.7528 11.6846 32.7298 12.1286 31.8647 13.0166C30.9995 13.9046 30.567 15.006 30.567 16.3206C30.567 17.6285 31.0098 18.7187 31.8953 19.5911C32.7809 20.4636 33.7929 20.8996 34.9314 20.8993C35.856 20.8938 36.6586 20.6392 37.3389 20.1353C37.3389 20.1536 37.3389 22.9098 37.3389 23.754C37.3256 25.2342 36.7282 26.6492 35.6768 27.6911C34.6253 28.7331 33.205 29.3177 31.7247 29.3177C30.2445 29.3177 28.8241 28.7331 27.7727 27.6911C26.7213 26.6492 26.1239 25.2342 26.1105 23.754H23.4785C23.4785 28.3011 27.1778 31.999 31.7236 31.999C36.1887 31.999 39.834 28.4312 39.9641 23.9967H39.9673V23.8712C39.9673 23.8314 39.9705 23.7924 39.9705 23.7526L39.9686 23.7535ZM36.7576 17.8812C36.3796 18.2983 35.8831 18.5069 35.268 18.5069C34.664 18.5069 34.1702 18.2983 33.7867 17.8812C33.4031 17.4641 33.2114 16.9449 33.2114 16.3238C33.2114 15.7033 33.4031 15.1841 33.7867 14.7664C34.1702 14.3486 34.664 14.1399 35.268 14.1402C35.8773 14.1402 36.3724 14.3489 36.7535 14.7664C37.1346 15.1838 37.325 15.703 37.3247 16.3238C37.325 16.9446 37.1358 17.4637 36.7572 17.8812H36.7576Z" fill="#134B97"/>
<path d="M42.0244 28.042C42.0188 28.3064 41.9098 28.5582 41.7208 28.7432C41.5317 28.9282 41.2778 29.0319 41.0132 29.0319C40.7487 29.0319 40.4947 28.9282 40.3057 28.7432C40.1167 28.5582 40.0077 28.3064 40.0021 28.042C40.0021 27.496 40.4523 27.0576 41.0162 27.0576C41.5801 27.0576 42.0244 27.4974 42.0244 28.042ZM40.254 28.042C40.254 28.4799 40.5783 28.828 41.0222 28.828C41.4541 28.828 41.7725 28.4799 41.7725 28.0493C41.7725 27.6187 41.4546 27.2573 41.0162 27.2573C40.5779 27.2573 40.2545 27.61 40.2545 28.042H40.254ZM40.86 28.5582H40.631V27.5738C40.7557 27.552 40.8823 27.542 41.0089 27.5441C41.1949 27.5441 41.2791 27.5738 41.3511 27.616C41.3822 27.6426 41.407 27.6758 41.4236 27.7132C41.4403 27.7506 41.4483 27.7913 41.4473 27.8322C41.4473 27.9403 41.3634 28.0241 41.2434 28.0612V28.0731C41.3392 28.1093 41.3932 28.1812 41.4234 28.3132C41.4537 28.4629 41.4692 28.5229 41.4954 28.5591H41.2494C41.2191 28.5229 41.2036 28.4332 41.1715 28.3191C41.1536 28.211 41.0936 28.1629 40.9672 28.1629H40.8591L40.86 28.5582ZM40.866 28.0003H40.9741C41.1 28.0003 41.2031 27.9582 41.2031 27.8565C41.2031 27.7649 41.1371 27.7062 40.9933 27.7062C40.951 27.7053 40.9087 27.7093 40.8673 27.7181L40.866 28.0003Z" fill="#134B97"/>
</g>
<defs>
<clipPath id="clip0_1554_1893">
<rect width="57.442" height="32" fill="white" transform="translate(0.175659)"/>
</clipPath>
</defs>
</svg>
