<svg width="46" height="46" viewBox="0 0 46 46" fill="none" xmlns="http://www.w3.org/2000/svg">
<g filter="url(#filter0_d_107_6626)">
<circle cx="23" cy="23" r="20" fill="#333652"/>
</g>
<path d="M24 29.5771L22.9585 30.1704H24V30.8267H21.6636V30.0693L22.7783 29.438H21.6636V28.7876H24V29.5771ZM21.6636 27.6333H24V28.5181H21.6636V27.6333ZM21.6636 24.7549H24V25.6396H22.9922V25.9224H24V26.8071H21.6636V25.9224H22.6699V25.6396H21.6636V24.7549ZM24.0571 23.4937C24.0571 23.5718 24.0557 23.6401 24.0527 23.6987C24.0508 23.7573 24.0449 23.8237 24.0352 23.8979C24.0264 23.9712 24.0137 24.0347 23.9971 24.0884C23.9805 24.1421 23.9575 24.1963 23.9282 24.251C23.8979 24.3057 23.8623 24.3506 23.8213 24.3857C23.7803 24.4199 23.729 24.4478 23.6675 24.4692C23.605 24.4907 23.5352 24.5015 23.458 24.5015H22.2041C22.1289 24.5015 22.061 24.4902 22.0005 24.4678C21.939 24.4453 21.8877 24.416 21.8467 24.3799C21.8057 24.3438 21.77 24.2983 21.7397 24.2437C21.7095 24.188 21.686 24.1323 21.6694 24.0767C21.6519 24.021 21.6382 23.9575 21.6284 23.8862C21.6187 23.814 21.6123 23.7485 21.6094 23.6899C21.6064 23.6304 21.605 23.5649 21.605 23.4937C21.605 23.4272 21.6064 23.3662 21.6094 23.3105C21.6113 23.2549 21.6172 23.1909 21.627 23.1187C21.6367 23.0464 21.6499 22.9819 21.6665 22.9253C21.6831 22.8687 21.7065 22.8115 21.7368 22.7539C21.7671 22.6953 21.8027 22.647 21.8438 22.6089C21.8848 22.5698 21.936 22.5381 21.9976 22.5137C22.0591 22.4893 22.1279 22.4771 22.2041 22.4771H23.458C23.5352 22.4771 23.6045 22.4888 23.666 22.5122C23.7275 22.5347 23.7788 22.564 23.8198 22.6001C23.8608 22.6362 23.8965 22.6826 23.9268 22.7393C23.9561 22.7959 23.979 22.8516 23.9956 22.9062C24.0122 22.9609 24.0249 23.0254 24.0337 23.0996C24.0435 23.1738 24.0498 23.2397 24.0527 23.2974C24.0557 23.354 24.0571 23.4194 24.0571 23.4937ZM23.6558 23.6152V23.3618H22.0049V23.6152H23.6558ZM23.0859 20.3501L23.083 20.3296L21.6636 20.1729V19.4243L24 19.7451V20.6855L22.6421 20.9009V20.917L24 21.1323V22.0435L21.6636 22.3496V21.5249L23.0859 21.415V21.396L21.6636 21.2261V20.5244L23.0859 20.3501ZM22.2363 17.2183H23.4243C23.4897 17.2183 23.5493 17.2251 23.603 17.2388C23.6567 17.2515 23.7031 17.2715 23.7422 17.2988C23.7803 17.3252 23.814 17.355 23.8433 17.3882C23.8716 17.4204 23.895 17.46 23.9136 17.5068C23.9321 17.5537 23.9478 17.5996 23.9604 17.6445C23.9722 17.6885 23.981 17.7407 23.9868 17.8013C23.9917 17.8608 23.9951 17.915 23.9971 17.9639C23.999 18.0127 24 18.0698 24 18.1353V19.2427H21.6636V18.1353C21.6636 18.061 21.665 17.9951 21.668 17.9375C21.6709 17.8799 21.6772 17.8179 21.687 17.7515C21.6958 17.6851 21.7085 17.6274 21.7251 17.5786C21.7417 17.5298 21.7646 17.4819 21.7939 17.4351C21.8223 17.3872 21.8564 17.3486 21.8965 17.3193C21.9355 17.2891 21.9839 17.2646 22.0415 17.2461C22.0991 17.2275 22.1641 17.2183 22.2363 17.2183ZM23.6558 18.3564V18.103H22.0107V18.3564H23.6558ZM22.6011 16.1343V16.1211L21.6636 15.8486V15.0342L23.2251 15.6816H24V16.5679H23.2104L21.6636 17.2197V16.3994L22.6011 16.1343Z" fill="#F8F8F8"/>
<path d="M16.5104 30.0664L12.9508 23.8174V30.0664H9.01335V16.0479H13.5573L17.3454 22.7363V16.0479H21.2477V30.0664H16.5104ZM36.9784 16.0479V30.0664H31.6698V24.0195H29.9735V30.0664H24.6649V16.0479H29.9735V22.0859H31.6698V16.0479H36.9784Z" fill="#FAD02C"/>
<defs>
<filter id="filter0_d_107_6626" x="0" y="0" width="46" height="46" filterUnits="userSpaceOnUse" color-interpolation-filters="sRGB">
<feFlood flood-opacity="0" result="BackgroundImageFix"/>
<feColorMatrix in="SourceAlpha" type="matrix" values="0 0 0 0 0 0 0 0 0 0 0 0 0 0 0 0 0 0 127 0" result="hardAlpha"/>
<feOffset/>
<feGaussianBlur stdDeviation="1.5"/>
<feComposite in2="hardAlpha" operator="out"/>
<feColorMatrix type="matrix" values="0 0 0 0 1 0 0 0 0 1 0 0 0 0 1 0 0 0 1 0"/>
<feBlend mode="normal" in2="BackgroundImageFix" result="effect1_dropShadow_107_6626"/>
<feBlend mode="normal" in="SourceGraphic" in2="effect1_dropShadow_107_6626" result="shape"/>
</filter>
</defs>
</svg>
