<svg width="20" height="20" viewBox="0 0 20 20" fill="none" xmlns="http://www.w3.org/2000/svg">
<g clip-path="url(#clip0_107_582)">
<path d="M15.8337 6.66667H15.0003V2.5H5.00033V6.66667H4.16699C2.78366 6.66667 1.66699 7.78333 1.66699 9.16667V14.1667H5.00033V17.5H15.0003V14.1667H18.3337V9.16667C18.3337 7.78333 17.217 6.66667 15.8337 6.66667ZM6.66699 4.16667H13.3337V6.66667H6.66699V4.16667ZM13.3337 14.1667V15.8333H6.66699V12.5H13.3337V14.1667ZM15.0003 12.5V10.8333H5.00033V12.5H3.33366V9.16667C3.33366 8.70833 3.70866 8.33333 4.16699 8.33333H15.8337C16.292 8.33333 16.667 8.70833 16.667 9.16667V12.5H15.0003Z" fill="#333652"/>
<path d="M15.0003 10.4167C15.4606 10.4167 15.8337 10.0436 15.8337 9.58333C15.8337 9.1231 15.4606 8.75 15.0003 8.75C14.5401 8.75 14.167 9.1231 14.167 9.58333C14.167 10.0436 14.5401 10.4167 15.0003 10.4167Z" fill="#333652"/>
</g>
<defs>
<clipPath id="clip0_107_582">
<rect width="20" height="20" fill="white"/>
</clipPath>
</defs>
</svg>
