<svg width="21" height="20" viewBox="0 0 21 20" fill="none" xmlns="http://www.w3.org/2000/svg">
<path d="M10.3999 0C4.8799 0 0.399902 4.48 0.399902 10C0.399902 15.52 4.8799 20 10.3999 20C15.9199 20 20.3999 15.52 20.3999 10C20.3999 4.48 15.9199 0 10.3999 0ZM10.3999 3C12.0599 3 13.3999 4.34 13.3999 6C13.3999 7.66 12.0599 9 10.3999 9C8.7399 9 7.3999 7.66 7.3999 6C7.3999 4.34 8.7399 3 10.3999 3ZM10.3999 17.2C7.8999 17.2 5.6899 15.92 4.3999 13.98C4.4299 11.99 8.3999 10.9 10.3999 10.9C12.3899 10.9 16.3699 11.99 16.3999 13.98C15.1099 15.92 12.8999 17.2 10.3999 17.2Z" fill="#6C6C6C"/>
</svg>
