<svg width="146" height="24" viewBox="0 0 146 24" fill="none" xmlns="http://www.w3.org/2000/svg">
<path d="M32.994 0.681956C31.5351 0.607005 30.188 2.07979 28.9945 2.72423L29.888 3.66028C31.7125 5.61978 30.1178 7.80017 29.0371 9.7871C27.4066 12.2376 24.9236 14.9425 21.336 14.4248C20.5582 14.2643 19.8996 13.6471 19.6341 12.9782C21.5623 11.3585 23.2863 9.5177 24.5696 7.61719C25.4477 5.86709 27.359 3.75618 25.8034 1.83074C23.7407 1.19491 21.6968 2.37577 19.9744 3.3199C19.0418 4.03446 18.4393 4.61553 17.7194 5.44727C15.7469 7.71934 14.4127 10.6171 14.6135 13.6164C13.6689 14.198 12.5797 14.7604 11.2948 14.4248C10.517 14.1788 10.049 13.4495 9.84816 12.808C9.04315 8.46015 12.2444 5.23648 15.124 2.08602L11.1671 2.68168C7.91996 2.49721 4.05303 1.25138 1.38123 3.49009C0.463893 4.49894 0.0767594 5.72832 0.147354 6.97897C0.992366 6.36903 2.1304 6.13184 3.21077 6.04293C5.27499 6.1975 7.39406 6.3908 9.2525 5.95784C7.59485 7.9481 5.7607 9.9325 5.25304 12.3825C4.98039 14.0021 5.24162 15.6085 6.65711 16.6798C9.36822 18.2164 12.5933 17.1539 14.9964 15.7437C15.701 16.4518 16.6234 17.0341 17.6343 17.1904C24.4657 18.2615 29.9766 13.6433 33.462 8.80851C34.8116 6.69694 36.442 3.71943 34.4831 1.36271C33.9845 0.896518 33.4803 0.70694 32.994 0.681956ZM59.5861 1.23507C56.7508 1.46484 54.6114 2.96078 52.6509 4.9367C52.0552 5.53398 51.2876 6.35095 50.7362 6.97897C49.327 8.69449 48.7229 10.747 47.9706 12.7229C46.6841 13.3355 44.7966 13.979 43.4181 13.1058C42.6675 11.8039 43.6393 10.655 44.3116 9.65946C45.7667 9.29185 47.3171 8.22987 47.7154 6.85133C46.3368 5.99363 44.3643 5.94426 42.6948 6.12803C40.4125 6.35778 37.892 7.2581 35.8872 8.46813C33.159 10.1224 32.2979 11.0976 31.3346 13.7015C31.1338 14.6052 30.8598 15.9395 31.8877 16.5521C34.8592 17.4098 37.4904 15.6331 39.5888 13.8717C39.5275 14.6221 39.3182 15.851 40.0994 16.5096C42.8718 17.8729 46.0679 16.4874 48.3961 15.063C49.0394 15.7676 49.9074 16.6967 50.949 16.85C53.4168 17.1563 55.4011 15.9072 57.1609 14.4673C57.3311 15.1414 57.4111 15.88 58.0544 16.3394C60.1528 16.9827 62.1441 16.1045 63.7983 15.063C63.6281 16.2271 62.7635 17.3095 62.1815 18.3817C61.5824 19.2396 60.7808 20.441 59.5861 20.5941C58.6807 19.7976 59.872 18.9347 59.8414 18.1689C58.9973 18.1382 58.3046 18.4156 57.6289 18.7221C56.2351 19.6717 55.0352 21.0673 55.4164 22.7215C55.6479 23.1811 56.184 23.3478 56.7354 23.3172C64.9147 22.6432 68.9942 14.3719 72.1801 8.76597L71.8398 8.2554C72.3741 7.8265 73.043 7.39587 73.4566 6.93643L70.9463 6.00038C67.6378 5.57159 64.7037 6.14332 62.2666 8.04266C61.916 8.25707 61.3969 8.6332 61.0753 8.89361C58.7011 10.9615 56.9482 14.1168 53.3316 13.4887C52.9181 13.3357 52.3377 12.854 52.5658 12.425C54.329 11.3222 56.0546 9.94714 57.5864 8.55323C59.3155 6.62333 61.5007 4.80571 61.5007 2.17112C61.1944 1.46664 60.3962 1.18926 59.5861 1.23507ZM138.256 3.95811C136.315 4.16984 135.228 6.18114 133.746 7.3619C131.141 9.20009 128.908 11.864 125.79 12.5952C125.089 12.6833 124.447 12.8045 124.045 12.1272C124.078 9.77817 126.632 8.32305 128.258 6.63859L128.343 6.21312C128.007 5.78599 127.562 5.35204 126.981 5.31962C123.875 6.30033 121.453 8.80869 118.684 10.553C119.095 9.08457 120.728 7.89009 121.365 6.42586C121.064 5.90253 120.332 5.54449 119.663 5.44727C115.153 8.57018 110.832 12.1374 105.622 13.7015C105.015 13.8551 104.002 14.0192 103.495 13.5313C106.536 11.851 111.935 10.8269 111.792 6.63859C111.499 5.81091 110.507 5.4951 109.664 5.40472C106.775 5.47015 103.844 6.90346 101.708 8.68087C100.204 9.93985 99.2216 11.231 98.3893 12.8505C96.8627 13.4048 95.3072 13.8931 93.5815 14.0418C92.7425 14.1349 91.4048 14.2515 90.6883 13.7015L94.092 12.1272C95.9199 11.1799 98.3961 9.88798 98.7297 7.74483C98.6293 7.13247 98.3196 6.49783 97.7511 6.12803C94.7779 5.11172 91.8898 6.3002 89.4544 7.87247L89.0715 8.12775C88.7958 8.32305 88.5252 8.52897 88.2631 8.72342C86.6343 9.94823 85.8004 11.5764 85.1571 13.2334C83.8398 13.5068 82.1345 14.0961 81.1151 13.0207C80.7423 10.4812 83.6543 8.85843 85.4124 7.14916C85.6098 6.78259 86.0165 6.12936 85.4124 5.83019C83.5454 5.12707 81.9252 6.54884 80.1365 6.42586C80.2386 6.12182 80.4905 5.88773 80.6896 5.61746C80.7968 5.24516 80.8496 4.7547 80.4769 4.51122C78.7137 4.47714 77.1871 6.12902 76.3072 7.447C76.2749 10.1105 73.1451 11.7078 71.4143 13.7015C70.9753 14.3446 69.9456 14.8107 70.0528 15.5736H70.2229C73.0242 14.7168 75.3627 12.3301 77.3284 10.2551C77.907 10.3175 78.6201 9.69745 79.1579 9.99984C77.747 11.5879 75.8017 13.2405 76.4774 15.4459C76.7122 16.3883 77.8049 16.8003 78.6473 16.8925C81.0164 16.955 83.0382 16.0979 85.072 15.3608C85.9791 15.085 85.877 16.3319 86.6888 16.5521C90.5742 17.7131 94.7149 16.4425 98.1341 15.063C98.6684 15.7702 99.4462 16.5213 100.432 16.7649C105.26 17.3149 109.033 14.7123 112.813 12.5101L112.941 12.5952C112.26 13.6656 111.234 14.6135 110.728 15.7437C110.457 16.2374 110.771 16.8377 111.451 16.6798C114.632 16.2568 117.076 14.2164 119.578 12.3825H119.918C119.443 13.2974 118.764 14.3407 119.28 15.4459C119.712 16.4506 120.866 16.5499 121.876 16.6372C126.648 15.993 130.092 12.2941 133.916 9.7871C134.493 10.7394 133.95 11.8615 133.746 12.808C132.092 13.1769 130.232 13.5972 129.279 15.063C129.115 15.525 129.355 16.095 129.832 16.3394C131.422 16.705 132.989 16.1327 134.512 15.9139C136.983 15.9139 139.276 16.4711 141.745 16.2543C143.813 15.7914 145.515 13.6947 145.787 11.9145C143.588 13.0506 140.847 13.2705 138.512 12.2974C138.981 10.4343 138.862 8.24602 138.894 6.25567C138.689 5.58505 139.676 5.18993 139.533 4.42613L139.15 4.00065C138.833 3.95037 138.534 3.92787 138.256 3.95811ZM56.8205 4.42613L56.9907 4.68141C56.0411 6.85626 54.4413 8.99741 52.0977 10.4679C52.2969 9.04331 53.3759 7.28014 54.4804 6.08548C55.2292 5.2583 55.8709 4.87031 56.8205 4.42613ZM21.8465 5.10689L22.3146 5.14944C22.5222 6.40582 21.7529 7.45847 21.0807 8.46813C20.4374 9.23182 19.8927 10.152 18.9108 10.6381C18.955 9.26627 19.355 7.80642 20.1021 6.68114C20.5531 6.00315 21.0875 5.55312 21.8465 5.10689ZM107.324 7.70228C107.733 7.72888 108.342 7.91861 108.005 8.38304C106.958 9.79003 105.314 10.6865 103.623 11.1486C103.738 10.3233 104.247 9.58763 104.942 8.9787C105.646 8.38601 106.511 7.92831 107.324 7.70228ZM93.7942 8.00011C94.2061 8.03169 94.8034 8.22464 94.475 8.68087C93.4266 10.0878 91.7894 11.0311 90.0926 11.489C90.2084 10.6638 90.7137 9.87559 91.4116 9.27653C92.111 8.67977 92.9807 8.22957 93.7942 8.00011ZM65.9682 8.55323C66.9374 8.59057 67.5071 9.16162 67.7127 9.27653C66.2881 11.0533 64.2016 13.104 61.6284 12.9356C61.0769 12.568 60.9034 12.0097 61.1178 11.489C61.2846 10.8762 61.7288 10.4135 62.2666 9.99984L62.5219 9.7871C63.3183 9.06713 64.3412 8.90729 64.862 8.72342C65.2755 8.57791 65.6451 8.54078 65.9682 8.55323ZM39.5888 8.9787C40.4272 8.99787 41.2592 9.20685 41.9715 9.57437C40.3496 11.3206 38.1864 12.4301 35.8872 12.9356C35.4906 12.9202 35.0141 12.7655 34.9086 12.3825C34.7231 11.0806 35.6131 10.33 36.653 9.70201C36.8675 9.57954 37.1636 9.44672 37.1636 9.44672C37.9056 9.12501 38.7504 8.95953 39.5888 8.9787Z" fill="#E51A38"/>
</svg>
