<svg width="128" height="30" viewBox="0 0 128 30" fill="none" xmlns="http://www.w3.org/2000/svg">
<g clip-path="url(#clip0_1554_1877)">
<path d="M111.804 10.0992C112.507 10.0992 113.086 9.73375 113.164 9.26156L113.858 1.41266C113.858 0.636876 112.949 0 111.807 0C110.665 0 109.757 0.636872 109.757 1.4128L110.451 9.26156C110.527 9.73361 111.106 10.0992 111.807 10.0992H111.804ZM107.562 12.5508C107.915 11.9428 107.888 11.2594 107.517 10.9558L101.065 6.43035C100.395 6.0419 99.3889 6.50947 98.8181 7.49937C98.2454 8.48801 98.3469 9.59217 99.0159 9.98077L106.159 13.3069C106.606 13.4724 107.215 13.1538 107.565 12.5462L107.562 12.5508ZM116.05 12.5466C116.402 13.1542 117.008 13.4729 117.455 13.3073L124.599 9.98119C125.272 9.59274 125.367 8.48843 124.8 7.49979C124.226 6.51087 123.219 6.04232 122.55 6.43077L116.098 10.9562C115.729 11.2594 115.702 11.9433 116.053 12.5512L116.05 12.5466ZM111.804 19.9037C112.507 19.9037 113.086 20.2661 113.164 20.7387L113.858 28.5865C113.858 29.3647 112.949 30.0001 111.807 30.0001C110.665 30.0001 109.757 29.3647 109.757 28.5865L110.451 20.7387C110.527 20.2661 111.106 19.9037 111.807 19.9037H111.804ZM116.05 17.4516C116.402 16.8423 117.008 16.5264 117.455 16.6939L124.599 20.0177C125.272 20.4066 125.367 21.5119 124.8 22.5013C124.226 23.487 123.219 23.9568 122.55 23.5689L116.098 19.0477C115.729 18.7421 115.702 18.0578 116.053 17.4503H116.05M107.562 17.4507C107.915 18.0578 107.888 18.7421 107.517 19.0482L101.065 23.5694C100.395 23.9573 99.3889 23.4874 98.8181 22.5017C98.2454 21.5123 98.3469 20.407 99.0159 20.0181L106.159 16.6943C106.606 16.5268 107.215 16.8427 107.565 17.4521H107.562" fill="#FDBB30"/>
<path d="M71.1109 19.0334C71.1109 19.2742 71.0895 19.5227 71.0235 19.7408C70.7499 20.647 69.8117 21.4133 68.6379 21.4133C67.6592 21.4133 66.8819 20.8573 66.8819 19.6831C66.8819 17.8861 68.8599 17.3898 71.1115 17.4023L71.1109 19.0332V19.0334ZM74.6426 15.9017C74.6426 12.9384 73.3764 10.331 69.0981 10.331C66.9019 10.331 65.1589 10.9478 64.2075 11.4976L64.9043 13.8799C65.7738 13.3309 67.1596 12.8765 68.471 12.8765C70.6411 12.8705 70.9965 14.1054 70.9965 14.8958V15.0829C66.266 15.0759 63.2757 16.7139 63.2757 20.0506C63.2757 22.0895 64.7987 23.9991 67.4462 23.9991C69.073 23.9991 70.4355 23.3498 71.2509 22.3086H71.3315C71.3315 22.3086 71.871 24.5691 74.8497 23.7042C74.6942 22.7642 74.6431 21.7607 74.6431 20.554L74.6427 15.9017M0.93689 6.29548C0.93689 6.29548 4.02814 18.9621 4.52176 21.0178C5.09757 23.4173 6.13537 24.3006 9.12607 23.7042L11.0562 15.8514C11.5456 13.8999 11.8731 12.5085 12.1885 10.5253H12.2434C12.4648 12.5295 12.7788 13.9059 13.1816 15.8578C13.1816 15.8578 13.9669 19.4231 14.3698 21.2951C14.7731 23.1665 15.8956 24.3467 18.8254 23.7042L23.4246 6.29492H19.7123L18.1414 13.8222C17.7191 16.0123 17.3362 17.7256 17.0408 19.7288H16.9883C16.7198 17.7432 16.378 16.0998 15.9491 13.9654L14.3149 6.29492H10.4463L8.69728 13.772C8.20226 16.0448 7.73805 17.8792 7.44398 19.8157H7.39049C7.08857 17.9922 6.68668 15.6857 6.25173 13.4868C6.25173 13.4868 5.21338 8.13847 4.84817 6.29492L0.93689 6.29548ZM30.4468 19.0334C30.4468 19.2742 30.4253 19.5227 30.3584 19.7408C30.0853 20.647 29.1466 21.4133 27.9728 21.4133C26.994 21.4133 26.2178 20.8573 26.2178 19.6831C26.2178 17.8861 28.1952 17.3898 30.4472 17.4023L30.4468 19.0332V19.0334ZM33.978 15.9017C33.978 12.9384 32.7118 10.331 28.4343 10.331C26.2376 10.331 24.4932 10.9478 23.5424 11.4976L24.2384 13.8799C25.1077 13.3309 26.4935 12.8765 27.8053 12.8765C29.977 12.8705 30.3324 14.1054 30.3324 14.8958V15.0829C25.5999 15.0759 22.611 16.7139 22.611 20.0506C22.611 22.0895 24.1332 23.9991 26.7787 23.9991C28.4077 23.9991 29.7694 23.3498 30.5858 22.3086H30.6654C30.6654 22.3086 31.2065 24.5691 34.1844 23.7042C34.0287 22.7642 33.978 21.7607 33.978 20.554V15.9017ZM39.8715 20.0087V6.29548H36.3356V23.7048H39.8715V20.0087ZM86.1269 6.29548V19.138C86.1269 20.9094 86.4609 22.1491 87.1729 22.9078C87.7969 23.5712 88.8221 24.0005 90.0516 24.0005C91.0974 24.0005 92.1255 23.801 92.6107 23.621L92.5651 20.8587C92.2041 20.9469 91.7896 21.0184 91.2221 21.0184C90.0173 21.0184 89.6144 20.2465 89.6144 18.657V13.7432H92.6935V10.4118H89.6144V6.29548H86.1269ZM77.0003 10.6263V23.7048H80.6478V17.0083C80.6478 16.6464 80.6696 16.331 80.7269 16.0425C80.9967 14.6391 82.0694 13.7432 83.6102 13.7432C84.0325 13.7432 84.3349 13.7891 84.6624 13.8356V10.4118C84.3875 10.357 84.201 10.3314 83.859 10.3314C82.4979 10.3314 80.9493 11.2097 80.2994 13.0937H80.2008V10.6263H77.0003ZM42.3473 10.6263V23.7048H45.9009V16.0355C45.9009 15.6756 45.9432 15.295 46.0678 14.9651C46.3623 14.193 47.081 13.2886 48.2277 13.2886C49.6623 13.2886 50.3323 14.5009 50.3323 16.2505V23.7038H53.8831V15.9412C53.8831 15.5978 53.93 15.1838 54.0315 14.8811C54.3231 14.0022 55.0972 13.2877 56.1634 13.2877C57.6171 13.2877 58.3149 14.4786 58.3149 16.538V23.7034H61.8681V16.0001C61.8681 11.9381 59.8054 10.3301 57.4767 10.3301C56.4463 10.3301 55.6321 10.5882 54.8958 11.0394C54.2776 11.4203 53.723 11.96 53.2392 12.6694H53.1867C52.6252 11.26 51.304 10.3308 49.5822 10.3308C47.3704 10.3308 46.3763 11.4521 45.7733 12.4029H45.7204V10.6259H42.3473" fill="#1A75CF"/>
<path d="M126.39 23.0689H126.444C126.515 23.0689 126.561 23.0395 126.561 22.9958C126.561 22.9461 126.518 22.9191 126.452 22.9191C126.429 22.9191 126.406 22.9237 126.391 22.9237V23.0702V23.0688L126.39 23.0689ZM126.382 23.4215H126.193V22.8061C126.236 22.7977 126.336 22.7827 126.464 22.7827C126.603 22.7827 126.665 22.8023 126.711 22.8331C126.75 22.86 126.778 22.9059 126.778 22.9679C126.778 23.0311 126.719 23.0846 126.634 23.108V23.1158C126.704 23.1344 126.742 23.1851 126.762 23.2741C126.781 23.3628 126.793 23.3991 126.804 23.4219H126.591C126.572 23.3991 126.561 23.3446 126.548 23.2903C126.536 23.228 126.507 23.1968 126.444 23.1968H126.382L126.382 23.4215ZM126.46 22.6055C126.189 22.6055 125.984 22.8265 125.984 23.1083C125.984 23.3827 126.19 23.6066 126.468 23.6066C126.747 23.6113 126.952 23.3829 126.952 23.1038C126.952 22.826 126.747 22.6055 126.464 22.6055H126.46ZM126.472 22.4385C126.851 22.4385 127.152 22.7362 127.152 23.1036C127.152 23.4754 126.851 23.7736 126.467 23.7736C126.084 23.7736 125.779 23.475 125.779 23.1038C125.779 22.7362 126.084 22.4386 126.467 22.4386H126.471" fill="#FDBB30"/>
</g>
<defs>
<clipPath id="clip0_1554_1877">
<rect width="126.263" height="30" fill="white" transform="translate(0.913025)"/>
</clipPath>
</defs>
</svg>
